HIERARCHY
ROOT Hips
{
    OFFSET 14.123167037963867 94.97297668457031 -18.513877868652344
    CHANNELS 6 Xposition Yposition Zposition Zrotation Xrotation Yrotation
    JOINT RightUpLeg
    {
        OFFSET -14.123167037963867 0.0 0.0
        CHANNELS 3 Zrotation Xrotation Yrotation
        JOINT RightLeg
        {
            OFFSET 0.0 -48.68828582763672 0.0
            CHANNELS 3 Zrotation Xrotation Yrotation
            JOINT RightFoot
            {
                OFFSET 0.0 -46.284690856933594 0.0
                CHANNELS 3 Zrotation Xrotation Yrotation
                End Site
                {
                    OFFSET 0.0 0.0 18.513877868652344
                }
            }
        }
    }
    JOINT LeftUpLeg
    {
        OFFSET 14.123167037963867 0.0 0.0
        CHANNELS 3 Zrotation Xrotation Yrotation
        JOINT LeftLeg
        {
            OFFSET 0.0 -48.68828582763672 0.0
            CHANNELS 3 Zrotation Xrotation Yrotation
            JOINT LeftFoot
            {
                OFFSET 0.0 -46.284690856933594 0.0
                CHANNELS 3 Zrotation Xrotation Yrotation
                End Site
                {
                    OFFSET 0.0 0.0 18.513877868652344
                }
            }
        }
    }
    JOINT Spine
    {
        OFFSET 0.0 25.34891128540039 0.0
        CHANNELS 3 Zrotation Xrotation Yrotation
        JOINT Spine3
        {
            OFFSET 0.0 25.895832061767578 0.0
            CHANNELS 3 Zrotation Xrotation Yrotation
            JOINT Neck
            {
                OFFSET 0.0 12.225237846374512 0.0
                CHANNELS 3 Zrotation Xrotation Yrotation
                End Site
                {
                    OFFSET 0.0 4.890095233917236 0.0
                }
            }
            JOINT LeftArm
            {
                OFFSET 14.92133617401123 0.0 0.0
                CHANNELS 3 Zrotation Xrotation Yrotation
                JOINT LeftForeArm
                {
                    OFFSET 25.870586395263672 0.0 0.0
                    CHANNELS 3 Zrotation Xrotation Yrotation
                    JOINT LeftHand
                    {
                        OFFSET 21.67721939086914 0.0 0.0
                        CHANNELS 3 Zrotation Xrotation Yrotation
                        End Site
                        {
                            OFFSET 8.670886993408203 0.0 0.0
                        }
                    }
                }
            }
            JOINT RightArm
            {
                OFFSET -14.92133617401123 0.0 0.0
                CHANNELS 3 Zrotation Xrotation Yrotation
                JOINT RightForeArm
                {
                    OFFSET -25.870586395263672 0.0 0.0
                    CHANNELS 3 Zrotation Xrotation Yrotation
                    JOINT RightHand
                    {
                        OFFSET -21.67721939086914 0.0 0.0
                        CHANNELS 3 Zrotation Xrotation Yrotation
                        End Site
                        {
                            OFFSET -8.670886993408203 0.0 0.0
                        }
                    }
                }
            }
        }
    }
}
MOTION
Frames: 7
Frame Time: 0.03333333333333333
-0.0001463259250158444 95.07349395751953 -0.0007933993474580348 -3.6808684098103046 -17.223316196975958 -13.809810529764906 7.613517463799933 29.380014199112733 -5.503796929986753 -3.316982607931127 8.506413808820549 -0.9423025396456164 0.0 0.0 -3.975693351829396e-16 -0.41333834971819544 25.731692806969107 -1.3451513402009805 -0.9944734187573634 8.545093324131285 -0.26768034194910967 -3.975693351829396e-16 2.4848083448933712e-17 3.553275933197523e-15 0.5821482560119797 29.69289202120562 -2.0267562781767503 2.1121526842670407e-07 6.341146801546454e-07 0.7811225413818375 6.802726065123827 1.5718655530196717 179.91358684916315 115.283501215487 -2.1756592858276953 -178.73790965667615 2.2905956417076875e-06 -3.144213342045532e-07 17.792333474048313 1.4312496066585827e-14 0.0 0.0 -109.38246644638761 -25.498778251932077 175.98325865054167 -2.6287642000119735e-06 1.9145603601206074e-06 -20.087836050017735 8.547740706433202e-15 -1.5902773407317582e-15 3.1805546814635168e-15
-0.00013558738282881677 95.07357788085938 -0.0007833939744159579 -3.433160043303757 -17.240058222125253 -13.640092002692384 7.23787748098906 29.29178243167303 -5.426775979731736 -3.067276146263475 8.705073226878389 -0.9872363065814383 -7.951386703658792e-16 -4.138037154422024e-33 5.963540027744094e-16 -0.932211617583094 25.53774850174514 -1.220435803278135 -0.7363901683513758 8.775157579259998 -0.2782593712505273 1.9878466759146977e-16 -1.2500320570649864e-33 -7.205944200190779e-16 0.3573749268460813 29.285275053395136 -2.0149428374804925 5.928028752305582e-08 2.3595242744235375e-07 0.7718821131100643 6.330728207138499 1.3513986360252366 179.42426726517172 116.74108228205675 -1.355434146091957 -178.9768617089618 5.032955002257608e-06 1.6989744784702742e-07 18.685393857008073 9.342879376799082e-15 -1.5902773407317588e-15 1.296584975052234e-31 -110.22386801917465 -25.28461085747814 176.69764747001935 3.308355780577237e-06 -3.6138166510123527e-06 -21.1344218953998 -2.782985346280577e-15 3.862168010793889e-32 -1.5902773407317584e-15
-9.049481013789773e-05 95.07365417480469 -0.0007636686787009239 -3.158600221317519 -17.073397738711307 -13.524893781301952 6.7962898174803055 28.854524119978752 -5.308174293563513 -2.70649814465671 8.872250008608283 -1.0564180140868402 -7.951386703658792e-16 -3.0811623476677818e-15 1.9878466759146977e-16 -1.407239057110054 24.97213221738184 -1.1425013932688468 -0.538861378391642 8.970072725218518 -0.2995420459730772 -9.939233379573486e-17 3.1805546814635164e-15 -6.21202086223343e-16 0.1580515570383472 28.798566015028502 -2.057611352163322 3.310315503532513e-07 2.5812709919577346e-07 0.8176485059134214 5.858697344227951 0.6666582372497873 178.96123827908568 119.16439693598062 -2.1015339698939157 -179.1137409232034 5.26592197957395e-06 9.537073101996689e-07 19.871481243843682 0.0 1.5902773407317588e-15 0.0 -111.32665509759818 -24.97168037468038 177.28784192850247 -1.205877140934904e-06 2.5319930069769165e-06 -22.106109399636757 -5.963540027744093e-16 0.0 0.0
-3.822624421445653e-05 95.07366180419922 -0.000723233271855861 -3.5003065988733453 -17.37678758670311 -13.669454602095906 6.87490299908835 28.901040432400887 -5.448847127482186 -2.765218579691979 9.225789636219325 -1.12570871773066 -7.951386703658792e-16 9.93923337957349e-17 6.896728590703373e-34 -1.4492006059250808 25.44114172653975 -1.2253156491214054 -0.022225730729891383 9.077048892589653 -0.40408587823025677 -7.951386703658791e-16 -2.465580471176456e-32 3.553275933197522e-15 0.4649309409010618 28.81161351510752 -2.298198640701446 1.454302060358005e-08 5.444474253033126e-07 0.812812780865046 6.202104103276938 0.40428624139070635 179.54189132319598 120.57854323849821 0.4992128678693377 -179.43157542484553 2.5246683394639337e-06 2.1167022191173493e-06 21.92832719493803 6.758678698109974e-15 0.0 0.0 -112.50880867029429 -22.70184484646501 177.6919903652569 -1.8161981360303647e-06 2.0559516042734744e-06 -23.172948261109454 4.969616689786745e-16 0.0 0.0
-5.115089152241126e-05 95.07371520996094 -0.000736816378775984 -3.4381831321201335 -17.5826725765863 -13.797528186336223 6.608451766816389 28.849207215571425 -5.500144177530992 -3.122477771878224 9.919363441227308 -1.166351273630358 7.951386703658792e-16 -9.93923337957349e-17 -1.3914926731402886e-15 -1.8254893279125752 25.564239723414413 -1.2356278239747407 -0.01827714463372343 9.416119034405577 -0.4209302780739804 -1.987846675914697e-16 -3.1557065980145826e-15 3.3544912656060522e-15 0.5600003246527948 28.85250381361435 -2.5353784868228373 -2.6068707585404973e-08 1.3921791557425798e-07 1.2231701152276637 5.643686553554089 0.197914795080358 179.43122926522602 121.86335599162045 0.0671557621156451 -179.39052554991056 3.2869727811101315e-06 -1.7779193654355083e-06 24.466150515348218 2.3854160110976376e-15 -6.620859447075238e-32 -3.1805546814635168e-15 -114.13805351836533 -22.402974240136405 176.52598760515707 -4.221116724276657e-07 -1.2288107998245132e-06 -23.871315725621532 6.4605016967227685e-15 1.5902773407317584e-15 -8.965747167914385e-32
-5.702220369130373e-05 95.07371520996094 -0.0007282418664544821 -3.198505336666677 -18.070174398736974 -14.093486722330905 5.784041550351466 29.205107333059917 -5.3835826188595854 -3.002040758057804 10.445311259368342 -1.1866779891543426 -7.951386703658792e-16 9.939233379573489e-17 9.93923337957349e-16 -2.391366121518491 26.03116281109551 -1.2141108717780735 -0.16324931567611772 9.657044530381318 -0.39096862900797175 5.517382872562698e-33 3.1805546814635168e-15 -1.987846675914698e-16 -0.17807065037746592 29.274930831637406 -2.437040146222627 3.913031845731917e-08 5.053510514548467e-07 1.093807273688089 5.698594304514447 0.5350051466647436 179.6824223551846 122.52978193232033 0.8543329709527653 -178.93605343315917 -2.327489074401969e-06 3.2721344159432707e-06 25.8034636413286 1.3914926731402886e-15 0.0 0.0 -114.50190479076156 -21.242250261505774 175.9538226279484 -1.008965118553529e-06 -3.9734594375506295e-07 -25.084148130716194 -1.5902773407317584e-15 0.0 0.0
-7.541586819570512e-05 95.07368469238281 -0.0007464155787602067 -2.993911079851914 -18.64637280272009 -14.223040220461538 5.054594638877923 29.35902734597102 -5.164495912194964 -2.961390354642403 11.097737831045373 -1.1827705654882381 0.0 0.0 9.939233379573488e-16 -3.096178785637982 26.593713860205863 -1.0313106397677991 -0.16354682964868908 9.47005194310004 -0.3133880973939628 2.981770013872046e-16 -1.2424041724466858e-17 4.969616689786744e-16 -0.7286828864380954 29.580797743126425 -2.307493104320805 3.7995405696118446e-07 -7.717545270685295e-07 0.8026510484373053 5.599598331149745 0.7455916939062817 179.79133345853668 122.5209070560053 1.0891367234412594 -178.17350773322272 7.551961154112431e-08 -3.0677267532878877e-06 26.710243929729803 -4.07508568562513e-15 3.1805546814635164e-15 1.1310634888753532e-31 -114.76331888040436 -21.70592198617121 175.09161438411388 3.237972860277138e-06 1.3252413063915488e-06 -26.640082404821964 2.6214728038625078e-15 0.0 0.0
